# xmcd
#
# Track frame offsets:
#	150
#	29656
#	58084
#	87669
#	116502
#	147074
#	176053
#	204706
#	230168
#	253192
#	282933
#	310446
#
# Disc length: 4492 seconds
#
# Revision: 1
# Processed by: cddbd v1.5.2PL0 Copyright (c) Steve Scherf et al.
# Submitted via: audiograbber 1.83.01
#
DISCID=be118a0c
DTITLE=Various Artist - X-Mix Dance 132 (June 2010)
DYEAR=2010
DGENRE=
TTITLE0=Sean Kingston - Justin Bieber - Eenie Meenie (130 BPM)
TTITLE1=Reina  - Just Let Go (130 BPM)
TTITLE2=Example - Won't Go Quietly (129 BPM)
TTITLE3=Spankers - Sex on The Beach (128 BPM)
TTITLE4=Luciana - David Vendetta  - Make Boys Cry  (128 BPM)
TTITLE5=Ke$ha - You Love Is My Drug  (128 BPM)
TTITLE6=Christina Aguilera - Not Myself Tonight (128 BPM)
TTITLE7=Armand Van Helden and A-Trak - aNYway  (128 BPM)
TTITLE8=2 DJ's On A Mission - The Fist Pump Anthem (128 BPM)
TTITLE9=Justin Michael and Kemal - Her World Goes On  (128 BPM)
TTITLE10=Paul Harris - Sing On  (127 BPM)
TTITLE11=Kelly Rowland - Commander  (125 BPM)
EXTD=
EXTT0=
EXTT1=
EXTT2=
EXTT3=
EXTT4=
EXTT5=
EXTT6=
EXTT7=
EXTT8=
EXTT9=
EXTT10=
EXTT11=
PLAYORDER=
